<?xml version="1.0" encoding="utf-8" standalone="no"?>
<!DOCTYPE svg PUBLIC "-//W3C//DTD SVG 1.1//EN"
  "http://www.w3.org/Graphics/SVG/1.1/DTD/svg11.dtd">
<!-- Created with matplotlib (https://matplotlib.org/) -->
<svg height="340.56pt" version="1.1" viewBox="0 0 460.8 340.56" width="460.8pt" xmlns="http://www.w3.org/2000/svg" xmlns:xlink="http://www.w3.org/1999/xlink">
 <defs>
  <style type="text/css">
*{stroke-linecap:butt;stroke-linejoin:round;}
  </style>
 </defs>
 <g id="figure_1">
  <g id="patch_1">
   <path d="M 0 340.56 
L 460.8 340.56 
L 460.8 0 
L 0 0 
z
" style="fill:#ffffff;"/>
  </g>
  <g id="axes_1">
   <g id="patch_2">
    <path d="M 57.6 303.0984 
L 414.72 303.0984 
L 414.72 40.8672 
L 57.6 40.8672 
z
" style="fill:#ffffff;"/>
   </g>
   <g id="PathCollection_1">
    <defs>
     <path d="M 0 -3 
L -3 3 
L 3 3 
z
" id="m497d8c6fa8" style="stroke:#000000;"/>
    </defs>
    <g clip-path="url(#p5c231442b0)">
     <use style="stroke:#000000;" x="75.896387" xlink:href="#m497d8c6fa8" y="54.140078"/>
    </g>
   </g>
   <g id="PathCollection_2">
    <defs>
     <path d="M 3 0 
L -3 -3 
L -3 3 
z
" id="m0aecd445f7" style="stroke:#000000;"/>
    </defs>
    <g clip-path="url(#p5c231442b0)">
     <use style="stroke:#000000;" x="396.409883" xlink:href="#m0aecd445f7" y="289.069136"/>
    </g>
   </g>
   <g id="PathCollection_3">
    <defs>
     <path d="M 0 1.5 
C 0.397805 1.5 0.77937 1.341951 1.06066 1.06066 
C 1.341951 0.77937 1.5 0.397805 1.5 0 
C 1.5 -0.397805 1.341951 -0.77937 1.06066 -1.06066 
C 0.77937 -1.341951 0.397805 -1.5 0 -1.5 
C -0.397805 -1.5 -0.77937 -1.341951 -1.06066 -1.06066 
C -1.341951 -0.77937 -1.5 -0.397805 -1.5 0 
C -1.5 0.397805 -1.341951 0.77937 -1.06066 1.06066 
C -0.77937 1.341951 -0.397805 1.5 0 1.5 
z
" id="m44485923f6" style="stroke:#000000;"/>
    </defs>
    <g clip-path="url(#p5c231442b0)">
     <use style="stroke:#000000;" x="179.287837" xlink:href="#m44485923f6" y="213.285569"/>
    </g>
   </g>
   <g id="matplotlib.axis_1">
    <g id="xtick_1">
     <g id="line2d_1">
      <defs>
       <path d="M 0 0 
L 0 -5 
" id="m4b0aa59b12" style="stroke:#000000;"/>
      </defs>
      <g>
       <use style="stroke:#000000;" x="75.896387" xlink:href="#m4b0aa59b12" y="303.0984"/>
      </g>
     </g>
     <g id="line2d_2">
      <defs>
       <path d="M 0 0 
L 0 5 
" id="m693743ea00" style="stroke:#000000;"/>
      </defs>
      <g>
       <use style="stroke:#000000;" x="75.896387" xlink:href="#m693743ea00" y="40.8672"/>
      </g>
     </g>
     <g id="text_1">
      <!-- $0.0$ -->
      <defs>
       <path d="M 42 31.84375 
C 42 37.96875 41.90625 48.421875 37.703125 56.453125 
C 34 63.484375 28.09375 66 22.90625 66 
C 18.09375 66 12 63.78125 8.203125 56.5625 
C 4.203125 49.015625 3.796875 39.671875 3.796875 31.84375 
C 3.796875 26.109375 3.90625 17.375 7 9.734375 
C 11.296875 -0.609375 19 -2 22.90625 -2 
C 27.5 -2 34.5 -0.109375 38.59375 9.4375 
C 41.59375 16.375 42 24.5 42 31.84375 
z
M 22.90625 -0.40625 
C 16.5 -0.40625 12.703125 5.125 11.296875 12.75 
C 10.203125 18.6875 10.203125 27.328125 10.203125 32.953125 
C 10.203125 40.6875 10.203125 47.109375 11.5 53.234375 
C 13.40625 61.78125 19 64.390625 22.90625 64.390625 
C 27 64.390625 32.296875 61.671875 34.203125 53.4375 
C 35.5 47.71875 35.59375 40.984375 35.59375 32.953125 
C 35.59375 26.421875 35.59375 18.375 34.40625 12.453125 
C 32.296875 1.5 26.40625 -0.40625 22.90625 -0.40625 
z
" id="CMR17-48"/>
       <path d="M 18.40625 4.796875 
C 18.40625 7.6875 16 9.6875 13.59375 9.6875 
C 10.703125 9.6875 8.703125 7.296875 8.703125 4.890625 
C 8.703125 2 11.09375 0 13.5 0 
C 16.40625 0 18.40625 2.390625 18.40625 4.796875 
z
" id="CMMI12-58"/>
      </defs>
      <g transform="translate(69.531348 313.516898)scale(0.1 -0.1)">
       <use transform="scale(0.996264)" xlink:href="#CMR17-48"/>
       <use transform="translate(45.690477 0)scale(0.996264)" xlink:href="#CMMI12-58"/>
       <use transform="translate(72.787654 0)scale(0.996264)" xlink:href="#CMR17-48"/>
      </g>
     </g>
    </g>
    <g id="xtick_2">
     <g id="line2d_3">
      <g>
       <use style="stroke:#000000;" x="127.592112" xlink:href="#m4b0aa59b12" y="303.0984"/>
      </g>
     </g>
     <g id="line2d_4">
      <g>
       <use style="stroke:#000000;" x="127.592112" xlink:href="#m693743ea00" y="40.8672"/>
      </g>
     </g>
     <g id="text_2">
      <!-- $0.5$ -->
      <defs>
       <path d="M 11.40625 58.59375 
C 12.40625 58.1875 16.5 56.890625 20.703125 56.890625 
C 30 56.890625 35.09375 61.890625 38 64.6875 
C 38 65.484375 38 66 37.40625 66 
C 37.296875 66 37.09375 66 36.296875 65.59375 
C 32.796875 64.09375 28.703125 63 23.703125 63 
C 20.703125 63 16.203125 63.359375 11.296875 65.484375 
C 10.203125 66 10 66 9.90625 66 
C 9.40625 66 9.296875 65.890625 9.296875 63.90625 
L 9.296875 34.859375 
C 9.296875 33.015625 9.296875 32.5 10.296875 32.5 
C 10.796875 32.5 11 32.703125 11.5 33.421875 
C 14.703125 38.046875 19.09375 40 24.09375 40 
C 27.59375 40 35.09375 37.734375 35.09375 20.203125 
C 35.09375 16.984375 35.09375 11.1875 32.09375 6.59375 
C 29.59375 2.484375 25.703125 0.390625 21.40625 0.390625 
C 14.796875 0.390625 8.09375 4.984375 6.296875 12.6875 
C 6.703125 12.59375 7.5 12.390625 7.90625 12.390625 
C 9.203125 12.390625 11.703125 13.09375 11.703125 16.1875 
C 11.703125 18.890625 9.796875 20 7.90625 20 
C 5.59375 20 4.09375 18.59375 4.09375 15.796875 
C 4.09375 7.09375 11 -2 21.59375 -2 
C 31.90625 -2 41.703125 6.890625 41.703125 19.796875 
C 41.703125 32.09375 33.90625 41.59375 24.203125 41.59375 
C 19.09375 41.59375 14.796875 39.6875 11.40625 36 
z
" id="CMR17-53"/>
      </defs>
      <g transform="translate(121.227073 313.516898)scale(0.1 -0.1)">
       <use transform="scale(0.996264)" xlink:href="#CMR17-48"/>
       <use transform="translate(45.690477 0)scale(0.996264)" xlink:href="#CMMI12-58"/>
       <use transform="translate(72.787654 0)scale(0.996264)" xlink:href="#CMR17-53"/>
      </g>
     </g>
    </g>
    <g id="xtick_3">
     <g id="line2d_5">
      <g>
       <use style="stroke:#000000;" x="179.287837" xlink:href="#m4b0aa59b12" y="303.0984"/>
      </g>
     </g>
     <g id="line2d_6">
      <g>
       <use style="stroke:#000000;" x="179.287837" xlink:href="#m693743ea00" y="40.8672"/>
      </g>
     </g>
     <g id="text_3">
      <!-- $1.0$ -->
      <defs>
       <path d="M 26.59375 63.796875 
C 26.59375 65.890625 26.5 66 25.09375 66 
C 21.203125 61.359375 15.296875 59.890625 9.703125 59.6875 
C 9.40625 59.6875 8.90625 59.6875 8.796875 59.5 
C 8.703125 59.296875 8.703125 59.09375 8.703125 57 
C 11.796875 57 17 57.59375 21 59.984375 
L 21 7.296875 
C 21 3.796875 20.796875 2.59375 12.203125 2.59375 
L 9.203125 2.59375 
L 9.203125 0 
C 14 0.09375 19 0.1875 23.796875 0.1875 
C 28.59375 0.1875 33.59375 0.09375 38.40625 0 
L 38.40625 2.59375 
L 35.40625 2.59375 
C 26.796875 2.59375 26.59375 3.6875 26.59375 7.296875 
z
" id="CMR17-49"/>
      </defs>
      <g transform="translate(172.922798 313.516898)scale(0.1 -0.1)">
       <use transform="scale(0.996264)" xlink:href="#CMR17-49"/>
       <use transform="translate(45.690477 0)scale(0.996264)" xlink:href="#CMMI12-58"/>
       <use transform="translate(72.787654 0)scale(0.996264)" xlink:href="#CMR17-48"/>
      </g>
     </g>
    </g>
    <g id="xtick_4">
     <g id="line2d_7">
      <g>
       <use style="stroke:#000000;" x="230.983562" xlink:href="#m4b0aa59b12" y="303.0984"/>
      </g>
     </g>
     <g id="line2d_8">
      <g>
       <use style="stroke:#000000;" x="230.983562" xlink:href="#m693743ea00" y="40.8672"/>
      </g>
     </g>
     <g id="text_4">
      <!-- $1.5$ -->
      <g transform="translate(224.618523 313.516898)scale(0.1 -0.1)">
       <use transform="scale(0.996264)" xlink:href="#CMR17-49"/>
       <use transform="translate(45.690477 0)scale(0.996264)" xlink:href="#CMMI12-58"/>
       <use transform="translate(72.787654 0)scale(0.996264)" xlink:href="#CMR17-53"/>
      </g>
     </g>
    </g>
    <g id="xtick_5">
     <g id="line2d_9">
      <g>
       <use style="stroke:#000000;" x="282.679288" xlink:href="#m4b0aa59b12" y="303.0984"/>
      </g>
     </g>
     <g id="line2d_10">
      <g>
       <use style="stroke:#000000;" x="282.679288" xlink:href="#m693743ea00" y="40.8672"/>
      </g>
     </g>
     <g id="text_5">
      <!-- $2.0$ -->
      <defs>
       <path d="M 41.703125 15.46875 
L 39.90625 15.46875 
C 38.90625 8.390625 38.09375 7.1875 37.703125 6.59375 
C 37.203125 5.796875 30 5.796875 28.59375 5.796875 
L 9.40625 5.796875 
C 13 9.6875 20 16.765625 28.5 24.9375 
C 34.59375 30.71875 41.703125 37.5 41.703125 47.390625 
C 41.703125 59.1875 32.296875 66 21.796875 66 
C 10.796875 66 4.09375 56.296875 4.09375 47.296875 
C 4.09375 43.390625 7 42.890625 8.203125 42.890625 
C 9.203125 42.890625 12.203125 43.484375 12.203125 46.984375 
C 12.203125 50.09375 9.59375 51 8.203125 51 
C 7.59375 51 7 50.890625 6.59375 50.6875 
C 8.5 59.1875 14.296875 63.390625 20.40625 63.390625 
C 29.09375 63.390625 34.796875 56.5 34.796875 47.390625 
C 34.796875 38.703125 29.703125 31.21875 24 24.734375 
L 4.09375 2.296875 
L 4.09375 0 
L 39.296875 0 
z
" id="CMR17-50"/>
      </defs>
      <g transform="translate(276.314248 313.516898)scale(0.1 -0.1)">
       <use transform="scale(0.996264)" xlink:href="#CMR17-50"/>
       <use transform="translate(45.690477 0)scale(0.996264)" xlink:href="#CMMI12-58"/>
       <use transform="translate(72.787654 0)scale(0.996264)" xlink:href="#CMR17-48"/>
      </g>
     </g>
    </g>
    <g id="xtick_6">
     <g id="line2d_11">
      <g>
       <use style="stroke:#000000;" x="334.375013" xlink:href="#m4b0aa59b12" y="303.0984"/>
      </g>
     </g>
     <g id="line2d_12">
      <g>
       <use style="stroke:#000000;" x="334.375013" xlink:href="#m693743ea00" y="40.8672"/>
      </g>
     </g>
     <g id="text_6">
      <!-- $2.5$ -->
      <g transform="translate(328.009973 313.516898)scale(0.1 -0.1)">
       <use transform="scale(0.996264)" xlink:href="#CMR17-50"/>
       <use transform="translate(45.690477 0)scale(0.996264)" xlink:href="#CMMI12-58"/>
       <use transform="translate(72.787654 0)scale(0.996264)" xlink:href="#CMR17-53"/>
      </g>
     </g>
    </g>
    <g id="xtick_7">
     <g id="line2d_13">
      <g>
       <use style="stroke:#000000;" x="386.070738" xlink:href="#m4b0aa59b12" y="303.0984"/>
      </g>
     </g>
     <g id="line2d_14">
      <g>
       <use style="stroke:#000000;" x="386.070738" xlink:href="#m693743ea00" y="40.8672"/>
      </g>
     </g>
     <g id="text_7">
      <!-- $3.0$ -->
      <defs>
       <path d="M 22.09375 34 
C 31 34 34.90625 26.140625 34.90625 17.09375 
C 34.90625 5.03125 28.5 0.390625 22.703125 0.390625 
C 17.40625 0.390625 8.796875 3.015625 6.09375 10.796875 
C 6.59375 10.59375 7.09375 10.59375 7.59375 10.59375 
C 10 10.59375 11.796875 12.1875 11.796875 14.796875 
C 11.796875 17.6875 9.59375 19 7.59375 19 
C 5.90625 19 3.296875 18.1875 3.296875 14.484375 
C 3.296875 5.234375 12.296875 -2 22.90625 -2 
C 34 -2 42.5 6.75 42.5 16.984375 
C 42.5 26.84375 34.5 34 25 35.09375 
C 32.59375 36.671875 39.90625 43.375 39.90625 52.390625 
C 39.90625 60.25 32 66 23 66 
C 13.90625 66 5.90625 60.34375 5.90625 52.296875 
C 5.90625 48.796875 8.5 48.1875 9.796875 48.1875 
C 11.90625 48.1875 13.703125 49.484375 13.703125 52.09375 
C 13.703125 54.6875 11.90625 56 9.796875 56 
C 9.40625 56 8.90625 56 8.5 55.796875 
C 11.40625 62.484375 19.296875 63.6875 22.796875 63.6875 
C 26.296875 63.6875 32.90625 61.96875 32.90625 52.296875 
C 32.90625 49.484375 32.5 44.546875 29.09375 40.21875 
C 26.09375 36.390625 22.703125 36.1875 19.40625 35.890625 
C 18.90625 35.890625 16.59375 35.6875 16.203125 35.6875 
C 15.5 35.59375 15.09375 35.5 15.09375 34.796875 
C 15.09375 34.09375 15.203125 34 17.203125 34 
z
" id="CMR17-51"/>
      </defs>
      <g transform="translate(379.705698 313.516898)scale(0.1 -0.1)">
       <use transform="scale(0.996264)" xlink:href="#CMR17-51"/>
       <use transform="translate(45.690477 0)scale(0.996264)" xlink:href="#CMMI12-58"/>
       <use transform="translate(72.787654 0)scale(0.996264)" xlink:href="#CMR17-48"/>
      </g>
     </g>
    </g>
    <g id="xtick_8">
     <g id="line2d_15">
      <defs>
       <path d="M 0 0 
L 0 -2 
" id="m0132b89e7f" style="stroke:#000000;"/>
      </defs>
      <g>
       <use style="stroke:#000000;" x="65.557242" xlink:href="#m0132b89e7f" y="303.0984"/>
      </g>
     </g>
     <g id="line2d_16">
      <defs>
       <path d="M 0 0 
L 0 2 
" id="m397e15260b" style="stroke:#000000;"/>
      </defs>
      <g>
       <use style="stroke:#000000;" x="65.557242" xlink:href="#m397e15260b" y="40.8672"/>
      </g>
     </g>
    </g>
    <g id="xtick_9">
     <g id="line2d_17">
      <g>
       <use style="stroke:#000000;" x="86.235532" xlink:href="#m0132b89e7f" y="303.0984"/>
      </g>
     </g>
     <g id="line2d_18">
      <g>
       <use style="stroke:#000000;" x="86.235532" xlink:href="#m397e15260b" y="40.8672"/>
      </g>
     </g>
    </g>
    <g id="xtick_10">
     <g id="line2d_19">
      <g>
       <use style="stroke:#000000;" x="96.574677" xlink:href="#m0132b89e7f" y="303.0984"/>
      </g>
     </g>
     <g id="line2d_20">
      <g>
       <use style="stroke:#000000;" x="96.574677" xlink:href="#m397e15260b" y="40.8672"/>
      </g>
     </g>
    </g>
    <g id="xtick_11">
     <g id="line2d_21">
      <g>
       <use style="stroke:#000000;" x="106.913822" xlink:href="#m0132b89e7f" y="303.0984"/>
      </g>
     </g>
     <g id="line2d_22">
      <g>
       <use style="stroke:#000000;" x="106.913822" xlink:href="#m397e15260b" y="40.8672"/>
      </g>
     </g>
    </g>
    <g id="xtick_12">
     <g id="line2d_23">
      <g>
       <use style="stroke:#000000;" x="117.252967" xlink:href="#m0132b89e7f" y="303.0984"/>
      </g>
     </g>
     <g id="line2d_24">
      <g>
       <use style="stroke:#000000;" x="117.252967" xlink:href="#m397e15260b" y="40.8672"/>
      </g>
     </g>
    </g>
    <g id="xtick_13">
     <g id="line2d_25">
      <g>
       <use style="stroke:#000000;" x="137.931257" xlink:href="#m0132b89e7f" y="303.0984"/>
      </g>
     </g>
     <g id="line2d_26">
      <g>
       <use style="stroke:#000000;" x="137.931257" xlink:href="#m397e15260b" y="40.8672"/>
      </g>
     </g>
    </g>
    <g id="xtick_14">
     <g id="line2d_27">
      <g>
       <use style="stroke:#000000;" x="148.270402" xlink:href="#m0132b89e7f" y="303.0984"/>
      </g>
     </g>
     <g id="line2d_28">
      <g>
       <use style="stroke:#000000;" x="148.270402" xlink:href="#m397e15260b" y="40.8672"/>
      </g>
     </g>
    </g>
    <g id="xtick_15">
     <g id="line2d_29">
      <g>
       <use style="stroke:#000000;" x="158.609547" xlink:href="#m0132b89e7f" y="303.0984"/>
      </g>
     </g>
     <g id="line2d_30">
      <g>
       <use style="stroke:#000000;" x="158.609547" xlink:href="#m397e15260b" y="40.8672"/>
      </g>
     </g>
    </g>
    <g id="xtick_16">
     <g id="line2d_31">
      <g>
       <use style="stroke:#000000;" x="168.948692" xlink:href="#m0132b89e7f" y="303.0984"/>
      </g>
     </g>
     <g id="line2d_32">
      <g>
       <use style="stroke:#000000;" x="168.948692" xlink:href="#m397e15260b" y="40.8672"/>
      </g>
     </g>
    </g>
    <g id="xtick_17">
     <g id="line2d_33">
      <g>
       <use style="stroke:#000000;" x="189.626982" xlink:href="#m0132b89e7f" y="303.0984"/>
      </g>
     </g>
     <g id="line2d_34">
      <g>
       <use style="stroke:#000000;" x="189.626982" xlink:href="#m397e15260b" y="40.8672"/>
      </g>
     </g>
    </g>
    <g id="xtick_18">
     <g id="line2d_35">
      <g>
       <use style="stroke:#000000;" x="199.966127" xlink:href="#m0132b89e7f" y="303.0984"/>
      </g>
     </g>
     <g id="line2d_36">
      <g>
       <use style="stroke:#000000;" x="199.966127" xlink:href="#m397e15260b" y="40.8672"/>
      </g>
     </g>
    </g>
    <g id="xtick_19">
     <g id="line2d_37">
      <g>
       <use style="stroke:#000000;" x="210.305272" xlink:href="#m0132b89e7f" y="303.0984"/>
      </g>
     </g>
     <g id="line2d_38">
      <g>
       <use style="stroke:#000000;" x="210.305272" xlink:href="#m397e15260b" y="40.8672"/>
      </g>
     </g>
    </g>
    <g id="xtick_20">
     <g id="line2d_39">
      <g>
       <use style="stroke:#000000;" x="220.644417" xlink:href="#m0132b89e7f" y="303.0984"/>
      </g>
     </g>
     <g id="line2d_40">
      <g>
       <use style="stroke:#000000;" x="220.644417" xlink:href="#m397e15260b" y="40.8672"/>
      </g>
     </g>
    </g>
    <g id="xtick_21">
     <g id="line2d_41">
      <g>
       <use style="stroke:#000000;" x="241.322708" xlink:href="#m0132b89e7f" y="303.0984"/>
      </g>
     </g>
     <g id="line2d_42">
      <g>
       <use style="stroke:#000000;" x="241.322708" xlink:href="#m397e15260b" y="40.8672"/>
      </g>
     </g>
    </g>
    <g id="xtick_22">
     <g id="line2d_43">
      <g>
       <use style="stroke:#000000;" x="251.661853" xlink:href="#m0132b89e7f" y="303.0984"/>
      </g>
     </g>
     <g id="line2d_44">
      <g>
       <use style="stroke:#000000;" x="251.661853" xlink:href="#m397e15260b" y="40.8672"/>
      </g>
     </g>
    </g>
    <g id="xtick_23">
     <g id="line2d_45">
      <g>
       <use style="stroke:#000000;" x="262.000998" xlink:href="#m0132b89e7f" y="303.0984"/>
      </g>
     </g>
     <g id="line2d_46">
      <g>
       <use style="stroke:#000000;" x="262.000998" xlink:href="#m397e15260b" y="40.8672"/>
      </g>
     </g>
    </g>
    <g id="xtick_24">
     <g id="line2d_47">
      <g>
       <use style="stroke:#000000;" x="272.340143" xlink:href="#m0132b89e7f" y="303.0984"/>
      </g>
     </g>
     <g id="line2d_48">
      <g>
       <use style="stroke:#000000;" x="272.340143" xlink:href="#m397e15260b" y="40.8672"/>
      </g>
     </g>
    </g>
    <g id="xtick_25">
     <g id="line2d_49">
      <g>
       <use style="stroke:#000000;" x="293.018433" xlink:href="#m0132b89e7f" y="303.0984"/>
      </g>
     </g>
     <g id="line2d_50">
      <g>
       <use style="stroke:#000000;" x="293.018433" xlink:href="#m397e15260b" y="40.8672"/>
      </g>
     </g>
    </g>
    <g id="xtick_26">
     <g id="line2d_51">
      <g>
       <use style="stroke:#000000;" x="303.357578" xlink:href="#m0132b89e7f" y="303.0984"/>
      </g>
     </g>
     <g id="line2d_52">
      <g>
       <use style="stroke:#000000;" x="303.357578" xlink:href="#m397e15260b" y="40.8672"/>
      </g>
     </g>
    </g>
    <g id="xtick_27">
     <g id="line2d_53">
      <g>
       <use style="stroke:#000000;" x="313.696723" xlink:href="#m0132b89e7f" y="303.0984"/>
      </g>
     </g>
     <g id="line2d_54">
      <g>
       <use style="stroke:#000000;" x="313.696723" xlink:href="#m397e15260b" y="40.8672"/>
      </g>
     </g>
    </g>
    <g id="xtick_28">
     <g id="line2d_55">
      <g>
       <use style="stroke:#000000;" x="324.035868" xlink:href="#m0132b89e7f" y="303.0984"/>
      </g>
     </g>
     <g id="line2d_56">
      <g>
       <use style="stroke:#000000;" x="324.035868" xlink:href="#m397e15260b" y="40.8672"/>
      </g>
     </g>
    </g>
    <g id="xtick_29">
     <g id="line2d_57">
      <g>
       <use style="stroke:#000000;" x="344.714158" xlink:href="#m0132b89e7f" y="303.0984"/>
      </g>
     </g>
     <g id="line2d_58">
      <g>
       <use style="stroke:#000000;" x="344.714158" xlink:href="#m397e15260b" y="40.8672"/>
      </g>
     </g>
    </g>
    <g id="xtick_30">
     <g id="line2d_59">
      <g>
       <use style="stroke:#000000;" x="355.053303" xlink:href="#m0132b89e7f" y="303.0984"/>
      </g>
     </g>
     <g id="line2d_60">
      <g>
       <use style="stroke:#000000;" x="355.053303" xlink:href="#m397e15260b" y="40.8672"/>
      </g>
     </g>
    </g>
    <g id="xtick_31">
     <g id="line2d_61">
      <g>
       <use style="stroke:#000000;" x="365.392448" xlink:href="#m0132b89e7f" y="303.0984"/>
      </g>
     </g>
     <g id="line2d_62">
      <g>
       <use style="stroke:#000000;" x="365.392448" xlink:href="#m397e15260b" y="40.8672"/>
      </g>
     </g>
    </g>
    <g id="xtick_32">
     <g id="line2d_63">
      <g>
       <use style="stroke:#000000;" x="375.731593" xlink:href="#m0132b89e7f" y="303.0984"/>
      </g>
     </g>
     <g id="line2d_64">
      <g>
       <use style="stroke:#000000;" x="375.731593" xlink:href="#m397e15260b" y="40.8672"/>
      </g>
     </g>
    </g>
    <g id="xtick_33">
     <g id="line2d_65">
      <g>
       <use style="stroke:#000000;" x="396.409883" xlink:href="#m0132b89e7f" y="303.0984"/>
      </g>
     </g>
     <g id="line2d_66">
      <g>
       <use style="stroke:#000000;" x="396.409883" xlink:href="#m397e15260b" y="40.8672"/>
      </g>
     </g>
    </g>
    <g id="xtick_34">
     <g id="line2d_67">
      <g>
       <use style="stroke:#000000;" x="406.749028" xlink:href="#m0132b89e7f" y="303.0984"/>
      </g>
     </g>
     <g id="line2d_68">
      <g>
       <use style="stroke:#000000;" x="406.749028" xlink:href="#m397e15260b" y="40.8672"/>
      </g>
     </g>
    </g>
    <g id="text_8">
     <!-- $t$ -->
     <defs>
      <path d="M 20.09375 40.09375 
L 29.296875 40.09375 
C 31.203125 40.09375 32.203125 40.09375 32.203125 41.890625 
C 32.203125 43 31.59375 43 29.59375 43 
L 20.796875 43 
L 24.5 57.25 
C 24.90625 58.625 24.90625 58.8125 24.90625 59.5 
C 24.90625 61.09375 23.59375 62 22.296875 62 
C 21.5 62 19.203125 61.6875 18.40625 58.53125 
L 14.5 43 
L 5.09375 43 
C 3.09375 43 2.203125 43 2.203125 41.09375 
C 2.203125 40.09375 2.90625 40.09375 4.796875 40.09375 
L 13.703125 40.09375 
L 7.09375 13.765625 
C 6.296875 10.265625 6 9.265625 6 7.96875 
C 6 3.28125 9.296875 -1 14.90625 -1 
C 25 -1 30.40625 13.5625 30.40625 14.265625 
C 30.40625 14.859375 30 15.15625 29.40625 15.15625 
C 29.203125 15.15625 28.796875 15.15625 28.59375 14.75 
C 28.5 14.65625 28.40625 14.5625 27.703125 12.96875 
C 25.59375 7.96875 21 1 15.203125 1 
C 12.203125 1 12 3.484375 12 5.6875 
C 12 5.78125 12 7.671875 12.296875 8.875 
z
" id="CMMI12-116"/>
     </defs>
     <g transform="translate(376.542157 329.139953)scale(0.14 -0.14)">
      <use transform="scale(0.996264)" xlink:href="#CMMI12-116"/>
     </g>
    </g>
   </g>
   <g id="matplotlib.axis_2">
    <g id="ytick_1">
     <g id="line2d_69">
      <defs>
       <path d="M 0 0 
L 5 0 
" id="m6bdb6c8434" style="stroke:#000000;"/>
      </defs>
      <g>
       <use style="stroke:#000000;" x="57.6" xlink:href="#m6bdb6c8434" y="289.069136"/>
      </g>
     </g>
     <g id="line2d_70">
      <defs>
       <path d="M 0 0 
L -5 0 
" id="m10d4bc69df" style="stroke:#000000;"/>
      </defs>
      <g>
       <use style="stroke:#000000;" x="414.72" xlink:href="#m10d4bc69df" y="289.069136"/>
      </g>
     </g>
     <g id="text_9">
      <!-- $0.0$ -->
      <g transform="translate(41.369921 292.528385)scale(0.1 -0.1)">
       <use transform="scale(0.996264)" xlink:href="#CMR17-48"/>
       <use transform="translate(45.690477 0)scale(0.996264)" xlink:href="#CMMI12-58"/>
       <use transform="translate(72.787654 0)scale(0.996264)" xlink:href="#CMR17-48"/>
      </g>
     </g>
    </g>
    <g id="ytick_2">
     <g id="line2d_71">
      <g>
       <use style="stroke:#000000;" x="57.6" xlink:href="#m6bdb6c8434" y="251.177353"/>
      </g>
     </g>
     <g id="line2d_72">
      <g>
       <use style="stroke:#000000;" x="414.72" xlink:href="#m10d4bc69df" y="251.177353"/>
      </g>
     </g>
     <g id="text_10">
      <!-- $0.5$ -->
      <g transform="translate(41.369921 254.636602)scale(0.1 -0.1)">
       <use transform="scale(0.996264)" xlink:href="#CMR17-48"/>
       <use transform="translate(45.690477 0)scale(0.996264)" xlink:href="#CMMI12-58"/>
       <use transform="translate(72.787654 0)scale(0.996264)" xlink:href="#CMR17-53"/>
      </g>
     </g>
    </g>
    <g id="ytick_3">
     <g id="line2d_73">
      <g>
       <use style="stroke:#000000;" x="57.6" xlink:href="#m6bdb6c8434" y="213.285569"/>
      </g>
     </g>
     <g id="line2d_74">
      <g>
       <use style="stroke:#000000;" x="414.72" xlink:href="#m10d4bc69df" y="213.285569"/>
      </g>
     </g>
     <g id="text_11">
      <!-- $1.0$ -->
      <g transform="translate(41.369921 216.744818)scale(0.1 -0.1)">
       <use transform="scale(0.996264)" xlink:href="#CMR17-49"/>
       <use transform="translate(45.690477 0)scale(0.996264)" xlink:href="#CMMI12-58"/>
       <use transform="translate(72.787654 0)scale(0.996264)" xlink:href="#CMR17-48"/>
      </g>
     </g>
    </g>
    <g id="ytick_4">
     <g id="line2d_75">
      <g>
       <use style="stroke:#000000;" x="57.6" xlink:href="#m6bdb6c8434" y="175.393785"/>
      </g>
     </g>
     <g id="line2d_76">
      <g>
       <use style="stroke:#000000;" x="414.72" xlink:href="#m10d4bc69df" y="175.393785"/>
      </g>
     </g>
     <g id="text_12">
      <!-- $1.5$ -->
      <g transform="translate(41.369921 178.853035)scale(0.1 -0.1)">
       <use transform="scale(0.996264)" xlink:href="#CMR17-49"/>
       <use transform="translate(45.690477 0)scale(0.996264)" xlink:href="#CMMI12-58"/>
       <use transform="translate(72.787654 0)scale(0.996264)" xlink:href="#CMR17-53"/>
      </g>
     </g>
    </g>
    <g id="ytick_5">
     <g id="line2d_77">
      <g>
       <use style="stroke:#000000;" x="57.6" xlink:href="#m6bdb6c8434" y="137.502002"/>
      </g>
     </g>
     <g id="line2d_78">
      <g>
       <use style="stroke:#000000;" x="414.72" xlink:href="#m10d4bc69df" y="137.502002"/>
      </g>
     </g>
     <g id="text_13">
      <!-- $2.0$ -->
      <g transform="translate(41.369921 140.961251)scale(0.1 -0.1)">
       <use transform="scale(0.996264)" xlink:href="#CMR17-50"/>
       <use transform="translate(45.690477 0)scale(0.996264)" xlink:href="#CMMI12-58"/>
       <use transform="translate(72.787654 0)scale(0.996264)" xlink:href="#CMR17-48"/>
      </g>
     </g>
    </g>
    <g id="ytick_6">
     <g id="line2d_79">
      <g>
       <use style="stroke:#000000;" x="57.6" xlink:href="#m6bdb6c8434" y="99.610218"/>
      </g>
     </g>
     <g id="line2d_80">
      <g>
       <use style="stroke:#000000;" x="414.72" xlink:href="#m10d4bc69df" y="99.610218"/>
      </g>
     </g>
     <g id="text_14">
      <!-- $2.5$ -->
      <g transform="translate(41.369921 103.069467)scale(0.1 -0.1)">
       <use transform="scale(0.996264)" xlink:href="#CMR17-50"/>
       <use transform="translate(45.690477 0)scale(0.996264)" xlink:href="#CMMI12-58"/>
       <use transform="translate(72.787654 0)scale(0.996264)" xlink:href="#CMR17-53"/>
      </g>
     </g>
    </g>
    <g id="ytick_7">
     <g id="line2d_81">
      <g>
       <use style="stroke:#000000;" x="57.6" xlink:href="#m6bdb6c8434" y="61.718435"/>
      </g>
     </g>
     <g id="line2d_82">
      <g>
       <use style="stroke:#000000;" x="414.72" xlink:href="#m10d4bc69df" y="61.718435"/>
      </g>
     </g>
     <g id="text_15">
      <!-- $3.0$ -->
      <g transform="translate(41.369921 65.177684)scale(0.1 -0.1)">
       <use transform="scale(0.996264)" xlink:href="#CMR17-51"/>
       <use transform="translate(45.690477 0)scale(0.996264)" xlink:href="#CMMI12-58"/>
       <use transform="translate(72.787654 0)scale(0.996264)" xlink:href="#CMR17-48"/>
      </g>
     </g>
    </g>
    <g id="ytick_8">
     <g id="line2d_83">
      <defs>
       <path d="M 0 0 
L 2 0 
" id="m046855d250" style="stroke:#000000;"/>
      </defs>
      <g>
       <use style="stroke:#000000;" x="57.6" xlink:href="#m046855d250" y="296.647493"/>
      </g>
     </g>
     <g id="line2d_84">
      <defs>
       <path d="M 0 0 
L -2 0 
" id="mc9884f4cd2" style="stroke:#000000;"/>
      </defs>
      <g>
       <use style="stroke:#000000;" x="414.72" xlink:href="#mc9884f4cd2" y="296.647493"/>
      </g>
     </g>
    </g>
    <g id="ytick_9">
     <g id="line2d_85">
      <g>
       <use style="stroke:#000000;" x="57.6" xlink:href="#m046855d250" y="281.49078"/>
      </g>
     </g>
     <g id="line2d_86">
      <g>
       <use style="stroke:#000000;" x="414.72" xlink:href="#mc9884f4cd2" y="281.49078"/>
      </g>
     </g>
    </g>
    <g id="ytick_10">
     <g id="line2d_87">
      <g>
       <use style="stroke:#000000;" x="57.6" xlink:href="#m046855d250" y="273.912423"/>
      </g>
     </g>
     <g id="line2d_88">
      <g>
       <use style="stroke:#000000;" x="414.72" xlink:href="#mc9884f4cd2" y="273.912423"/>
      </g>
     </g>
    </g>
    <g id="ytick_11">
     <g id="line2d_89">
      <g>
       <use style="stroke:#000000;" x="57.6" xlink:href="#m046855d250" y="266.334066"/>
      </g>
     </g>
     <g id="line2d_90">
      <g>
       <use style="stroke:#000000;" x="414.72" xlink:href="#mc9884f4cd2" y="266.334066"/>
      </g>
     </g>
    </g>
    <g id="ytick_12">
     <g id="line2d_91">
      <g>
       <use style="stroke:#000000;" x="57.6" xlink:href="#m046855d250" y="258.755709"/>
      </g>
     </g>
     <g id="line2d_92">
      <g>
       <use style="stroke:#000000;" x="414.72" xlink:href="#mc9884f4cd2" y="258.755709"/>
      </g>
     </g>
    </g>
    <g id="ytick_13">
     <g id="line2d_93">
      <g>
       <use style="stroke:#000000;" x="57.6" xlink:href="#m046855d250" y="243.598996"/>
      </g>
     </g>
     <g id="line2d_94">
      <g>
       <use style="stroke:#000000;" x="414.72" xlink:href="#mc9884f4cd2" y="243.598996"/>
      </g>
     </g>
    </g>
    <g id="ytick_14">
     <g id="line2d_95">
      <g>
       <use style="stroke:#000000;" x="57.6" xlink:href="#m046855d250" y="236.020639"/>
      </g>
     </g>
     <g id="line2d_96">
      <g>
       <use style="stroke:#000000;" x="414.72" xlink:href="#mc9884f4cd2" y="236.020639"/>
      </g>
     </g>
    </g>
    <g id="ytick_15">
     <g id="line2d_97">
      <g>
       <use style="stroke:#000000;" x="57.6" xlink:href="#m046855d250" y="228.442283"/>
      </g>
     </g>
     <g id="line2d_98">
      <g>
       <use style="stroke:#000000;" x="414.72" xlink:href="#mc9884f4cd2" y="228.442283"/>
      </g>
     </g>
    </g>
    <g id="ytick_16">
     <g id="line2d_99">
      <g>
       <use style="stroke:#000000;" x="57.6" xlink:href="#m046855d250" y="220.863926"/>
      </g>
     </g>
     <g id="line2d_100">
      <g>
       <use style="stroke:#000000;" x="414.72" xlink:href="#mc9884f4cd2" y="220.863926"/>
      </g>
     </g>
    </g>
    <g id="ytick_17">
     <g id="line2d_101">
      <g>
       <use style="stroke:#000000;" x="57.6" xlink:href="#m046855d250" y="205.707212"/>
      </g>
     </g>
     <g id="line2d_102">
      <g>
       <use style="stroke:#000000;" x="414.72" xlink:href="#mc9884f4cd2" y="205.707212"/>
      </g>
     </g>
    </g>
    <g id="ytick_18">
     <g id="line2d_103">
      <g>
       <use style="stroke:#000000;" x="57.6" xlink:href="#m046855d250" y="198.128856"/>
      </g>
     </g>
     <g id="line2d_104">
      <g>
       <use style="stroke:#000000;" x="414.72" xlink:href="#mc9884f4cd2" y="198.128856"/>
      </g>
     </g>
    </g>
    <g id="ytick_19">
     <g id="line2d_105">
      <g>
       <use style="stroke:#000000;" x="57.6" xlink:href="#m046855d250" y="190.550499"/>
      </g>
     </g>
     <g id="line2d_106">
      <g>
       <use style="stroke:#000000;" x="414.72" xlink:href="#mc9884f4cd2" y="190.550499"/>
      </g>
     </g>
    </g>
    <g id="ytick_20">
     <g id="line2d_107">
      <g>
       <use style="stroke:#000000;" x="57.6" xlink:href="#m046855d250" y="182.972142"/>
      </g>
     </g>
     <g id="line2d_108">
      <g>
       <use style="stroke:#000000;" x="414.72" xlink:href="#mc9884f4cd2" y="182.972142"/>
      </g>
     </g>
    </g>
    <g id="ytick_21">
     <g id="line2d_109">
      <g>
       <use style="stroke:#000000;" x="57.6" xlink:href="#m046855d250" y="167.815429"/>
      </g>
     </g>
     <g id="line2d_110">
      <g>
       <use style="stroke:#000000;" x="414.72" xlink:href="#mc9884f4cd2" y="167.815429"/>
      </g>
     </g>
    </g>
    <g id="ytick_22">
     <g id="line2d_111">
      <g>
       <use style="stroke:#000000;" x="57.6" xlink:href="#m046855d250" y="160.237072"/>
      </g>
     </g>
     <g id="line2d_112">
      <g>
       <use style="stroke:#000000;" x="414.72" xlink:href="#mc9884f4cd2" y="160.237072"/>
      </g>
     </g>
    </g>
    <g id="ytick_23">
     <g id="line2d_113">
      <g>
       <use style="stroke:#000000;" x="57.6" xlink:href="#m046855d250" y="152.658715"/>
      </g>
     </g>
     <g id="line2d_114">
      <g>
       <use style="stroke:#000000;" x="414.72" xlink:href="#mc9884f4cd2" y="152.658715"/>
      </g>
     </g>
    </g>
    <g id="ytick_24">
     <g id="line2d_115">
      <g>
       <use style="stroke:#000000;" x="57.6" xlink:href="#m046855d250" y="145.080359"/>
      </g>
     </g>
     <g id="line2d_116">
      <g>
       <use style="stroke:#000000;" x="414.72" xlink:href="#mc9884f4cd2" y="145.080359"/>
      </g>
     </g>
    </g>
    <g id="ytick_25">
     <g id="line2d_117">
      <g>
       <use style="stroke:#000000;" x="57.6" xlink:href="#m046855d250" y="129.923645"/>
      </g>
     </g>
     <g id="line2d_118">
      <g>
       <use style="stroke:#000000;" x="414.72" xlink:href="#mc9884f4cd2" y="129.923645"/>
      </g>
     </g>
    </g>
    <g id="ytick_26">
     <g id="line2d_119">
      <g>
       <use style="stroke:#000000;" x="57.6" xlink:href="#m046855d250" y="122.345288"/>
      </g>
     </g>
     <g id="line2d_120">
      <g>
       <use style="stroke:#000000;" x="414.72" xlink:href="#mc9884f4cd2" y="122.345288"/>
      </g>
     </g>
    </g>
    <g id="ytick_27">
     <g id="line2d_121">
      <g>
       <use style="stroke:#000000;" x="57.6" xlink:href="#m046855d250" y="114.766932"/>
      </g>
     </g>
     <g id="line2d_122">
      <g>
       <use style="stroke:#000000;" x="414.72" xlink:href="#mc9884f4cd2" y="114.766932"/>
      </g>
     </g>
    </g>
    <g id="ytick_28">
     <g id="line2d_123">
      <g>
       <use style="stroke:#000000;" x="57.6" xlink:href="#m046855d250" y="107.188575"/>
      </g>
     </g>
     <g id="line2d_124">
      <g>
       <use style="stroke:#000000;" x="414.72" xlink:href="#mc9884f4cd2" y="107.188575"/>
      </g>
     </g>
    </g>
    <g id="ytick_29">
     <g id="line2d_125">
      <g>
       <use style="stroke:#000000;" x="57.6" xlink:href="#m046855d250" y="92.031862"/>
      </g>
     </g>
     <g id="line2d_126">
      <g>
       <use style="stroke:#000000;" x="414.72" xlink:href="#mc9884f4cd2" y="92.031862"/>
      </g>
     </g>
    </g>
    <g id="ytick_30">
     <g id="line2d_127">
      <g>
       <use style="stroke:#000000;" x="57.6" xlink:href="#m046855d250" y="84.453505"/>
      </g>
     </g>
     <g id="line2d_128">
      <g>
       <use style="stroke:#000000;" x="414.72" xlink:href="#mc9884f4cd2" y="84.453505"/>
      </g>
     </g>
    </g>
    <g id="ytick_31">
     <g id="line2d_129">
      <g>
       <use style="stroke:#000000;" x="57.6" xlink:href="#m046855d250" y="76.875148"/>
      </g>
     </g>
     <g id="line2d_130">
      <g>
       <use style="stroke:#000000;" x="414.72" xlink:href="#mc9884f4cd2" y="76.875148"/>
      </g>
     </g>
    </g>
    <g id="ytick_32">
     <g id="line2d_131">
      <g>
       <use style="stroke:#000000;" x="57.6" xlink:href="#m046855d250" y="69.296791"/>
      </g>
     </g>
     <g id="line2d_132">
      <g>
       <use style="stroke:#000000;" x="414.72" xlink:href="#mc9884f4cd2" y="69.296791"/>
      </g>
     </g>
    </g>
    <g id="ytick_33">
     <g id="line2d_133">
      <g>
       <use style="stroke:#000000;" x="57.6" xlink:href="#m046855d250" y="54.140078"/>
      </g>
     </g>
     <g id="line2d_134">
      <g>
       <use style="stroke:#000000;" x="414.72" xlink:href="#mc9884f4cd2" y="54.140078"/>
      </g>
     </g>
    </g>
    <g id="ytick_34">
     <g id="line2d_135">
      <g>
       <use style="stroke:#000000;" x="57.6" xlink:href="#m046855d250" y="46.561721"/>
      </g>
     </g>
     <g id="line2d_136">
      <g>
       <use style="stroke:#000000;" x="414.72" xlink:href="#mc9884f4cd2" y="46.561721"/>
      </g>
     </g>
    </g>
    <g id="text_16">
     <!-- $f(t)$ -->
     <defs>
      <path d="M 44.59375 40.09375 
C 46.59375 40.09375 47.40625 40.09375 47.40625 41.984375 
C 47.40625 43 46.59375 43 44.796875 43 
L 36.703125 43 
C 38.59375 53.09375 40 60.09375 40.796875 63.296875 
C 41.40625 65.6875 43.5 67.984375 46.09375 67.984375 
C 48.203125 67.984375 50.296875 67.09375 51.296875 66.1875 
C 47.40625 65.796875 46.203125 62.890625 46.203125 61.1875 
C 46.203125 59.1875 47.703125 58 49.59375 58 
C 51.59375 58 54.59375 59.6875 54.59375 63.5 
C 54.59375 67.6875 50.40625 70 46 70 
C 41.703125 70 37.5 66.796875 35.5 62.890625 
C 33.703125 59.390625 32.703125 55.828125 30.40625 43 
L 23.703125 43 
C 21.796875 43 20.796875 43 20.796875 41.1875 
C 20.796875 40.09375 21.40625 40.09375 23.40625 40.09375 
L 29.796875 40.09375 
C 28 30.890625 23.90625 8.515625 21.59375 -2.0625 
C 19.90625 -10.703125 18.40625 -18 13.40625 -18 
C 13.09375 -18 10.203125 -18 8.40625 -16.109375 
C 13.5 -15.703125 13.5 -11.3125 13.5 -11.203125 
C 13.5 -9.203125 12 -8 10.09375 -8 
C 8.09375 -8 5.09375 -9.703125 5.09375 -13.515625 
C 5.09375 -17.8125 9.5 -20 13.40625 -20 
C 23.59375 -20 27.796875 -1.765625 28.90625 3.171875 
C 30.703125 10.796875 35.59375 37.125 36.09375 40.09375 
z
" id="CMMI12-102"/>
      <path d="M 30.59375 -24.40625 
C 30.59375 -24.3125 30.59375 -24.109375 30.296875 -23.8125 
C 25.703125 -19.109375 13.40625 -6.296875 13.40625 24.9375 
C 13.40625 56.171875 25.5 68.875 30.40625 73.890625 
C 30.40625 73.984375 30.59375 74.1875 30.59375 74.484375 
C 30.59375 74.796875 30.296875 75 29.90625 75 
C 28.796875 75 20.296875 67.578125 15.40625 56.5625 
C 10.40625 45.453125 9 34.65625 9 25.046875 
C 9 17.828125 9.703125 5.625 15.703125 -7.296875 
C 20.5 -17.703125 28.703125 -25 29.90625 -25 
C 30.40625 -25 30.59375 -24.8125 30.59375 -24.40625 
z
" id="CMR17-40"/>
      <path d="M 26.296875 24.9375 
C 26.296875 32.140625 25.59375 44.359375 19.59375 57.265625 
C 14.796875 67.6875 6.59375 75 5.40625 75 
C 5.09375 75 4.703125 74.890625 4.703125 74.390625 
C 4.703125 74.1875 4.796875 74.09375 4.90625 73.890625 
C 9.703125 68.875 21.90625 56.171875 21.90625 25.046875 
C 21.90625 -6.1875 9.796875 -18.90625 4.90625 -23.90625 
C 4.796875 -24.109375 4.703125 -24.203125 4.703125 -24.40625 
C 4.703125 -24.90625 5.09375 -25 5.40625 -25 
C 6.5 -25 15 -17.609375 19.90625 -6.59375 
C 24.90625 4.515625 26.296875 15.328125 26.296875 24.9375 
z
" id="CMR17-41"/>
     </defs>
     <g transform="translate(25.482614 89.826516)scale(0.14 -0.14)">
      <use transform="scale(0.996264)" xlink:href="#CMMI12-102"/>
      <use transform="translate(58.720305 0)scale(0.996264)" xlink:href="#CMR17-40"/>
      <use transform="translate(94.001073 0)scale(0.996264)" xlink:href="#CMMI12-116"/>
      <use transform="translate(129.227403 0)scale(0.996264)" xlink:href="#CMR17-41"/>
     </g>
    </g>
   </g>
   <g id="line2d_137">
    <path clip-path="url(#p5c231442b0)" d="M 75.896387 251.177353 
L 386.070738 137.502002 
L 386.070738 137.502002 
" style="fill:none;stroke:#ff7f0e;stroke-linecap:square;stroke-opacity:0.8;stroke-width:1.5;"/>
   </g>
   <g id="line2d_138">
    <path clip-path="url(#p5c231442b0)" d="M 61.1712 289.069136 
L 396.864 289.069136 
" style="fill:none;stroke:#000000;stroke-linecap:square;"/>
   </g>
   <g id="line2d_139">
    <path clip-path="url(#p5c231442b0)" d="M 75.896387 303.0984 
L 75.896387 53.97876 
" style="fill:none;stroke:#000000;stroke-linecap:square;"/>
   </g>
   <g id="line2d_140">
    <path clip-path="url(#p5c231442b0)" d="M 75.456 213.285569 
L 176.64 213.285569 
" style="fill:none;stroke:#000000;stroke-dasharray:3.7,1.6;stroke-dashoffset:0;"/>
   </g>
   <g id="line2d_141">
    <path clip-path="url(#p5c231442b0)" d="M 179.287837 287.364528 
L 179.287837 215.688 
" style="fill:none;stroke:#000000;stroke-dasharray:3.7,1.6;stroke-dashoffset:0;"/>
   </g>
   <g id="patch_3">
    <path d="M 57.6 303.0984 
L 57.6 40.8672 
" style="fill:none;stroke:#000000;stroke-linecap:square;stroke-linejoin:miter;stroke-width:0.8;"/>
   </g>
   <g id="patch_4">
    <path d="M 414.72 303.0984 
L 414.72 40.8672 
" style="fill:none;stroke:#000000;stroke-linecap:square;stroke-linejoin:miter;stroke-width:0.8;"/>
   </g>
   <g id="patch_5">
    <path d="M 57.6 303.0984 
L 414.72 303.0984 
" style="fill:none;stroke:#000000;stroke-linecap:square;stroke-linejoin:miter;stroke-width:0.8;"/>
   </g>
   <g id="patch_6">
    <path d="M 57.6 40.8672 
L 414.72 40.8672 
" style="fill:none;stroke:#000000;stroke-linecap:square;stroke-linejoin:miter;stroke-width:0.8;"/>
   </g>
   <g id="legend_1">
    <g id="patch_7">
     <path d="M 330.004972 76.741557 
L 407.72 76.741557 
Q 409.72 76.741557 409.72 74.741557 
L 409.72 47.8672 
Q 409.72 45.8672 407.72 45.8672 
L 330.004972 45.8672 
Q 328.004972 45.8672 328.004972 47.8672 
L 328.004972 74.741557 
Q 328.004972 76.741557 330.004972 76.741557 
z
" style="fill:#ffffff;opacity:0.8;stroke:#cccccc;stroke-linejoin:miter;"/>
    </g>
    <g id="line2d_142">
     <path d="M 332.004972 53.3672 
L 352.004972 53.3672 
" style="fill:none;stroke:#1f77b4;stroke-linecap:square;stroke-width:1.5;"/>
    </g>
    <g id="line2d_143"/>
    <g id="text_17">
     <!-- $t^{\alpha}$ -->
     <defs>
      <path d="M 46.296875 25.234375 
C 46.296875 34.90625 40.796875 44 30.203125 44 
C 17.09375 44 4 29.71875 4 15.5625 
C 4 6.875 9.40625 -1 19.59375 -1 
C 25.796875 -1 33.203125 1.390625 40.296875 7.375 
C 41.703125 1.796875 44.796875 -1 49.09375 -1 
C 54.5 -1 57.203125 4.578125 57.203125 5.875 
C 57.203125 6.78125 56.5 6.78125 56.203125 6.78125 
C 55.40625 6.78125 55.296875 6.484375 55 5.6875 
C 54.09375 3.1875 51.796875 1 49.40625 1 
C 46.296875 1 46.296875 7.375 46.296875 13.46875 
C 56.5 25.640625 58.90625 38.203125 58.90625 38.296875 
C 58.90625 39.203125 58.09375 39.203125 57.796875 39.203125 
C 56.90625 39.203125 56.796875 38.90625 56.40625 37.109375 
C 55.09375 32.71875 52.5 24.9375 46.296875 16.75 
z
M 40 9.765625 
C 31.203125 1.890625 23.296875 1 19.796875 1 
C 12.703125 1 10.703125 7.28125 10.703125 11.96875 
C 10.703125 16.25 12.90625 26.4375 16 31.921875 
C 20.09375 38.90625 25.703125 41.984375 30.203125 41.984375 
C 39.90625 41.984375 39.90625 29.328125 39.90625 20.9375 
C 39.90625 18.453125 39.796875 15.859375 39.796875 13.359375 
C 39.796875 11.375 39.90625 10.875 40 9.765625 
z
" id="CMMI12-11"/>
     </defs>
     <g transform="translate(360.004972 56.8672)scale(0.1 -0.1)">
      <use transform="scale(0.996264)" xlink:href="#CMMI12-116"/>
      <use transform="translate(35.22633 36.153639)scale(0.697382)" xlink:href="#CMMI12-11"/>
     </g>
    </g>
    <g id="line2d_144">
     <path d="M 332.004972 67.304378 
L 352.004972 67.304378 
" style="fill:none;stroke:#ff7f0e;stroke-linecap:square;stroke-opacity:0.8;stroke-width:1.5;"/>
    </g>
    <g id="line2d_145"/>
    <g id="text_18">
     <!-- $\alpha t + 1 - \alpha$ -->
     <defs>
      <path d="M 37.703125 23 
L 64.203125 23 
C 65.59375 23 67.296875 23 67.296875 24.6875 
C 67.296875 26.5 65.703125 26.5 64.203125 26.5 
L 37.703125 26.5 
L 37.703125 52.890625 
C 37.703125 54.296875 37.703125 56 36 56 
C 34.203125 56 34.203125 54.390625 34.203125 52.890625 
L 34.203125 26.5 
L 7.703125 26.5 
C 6.296875 26.5 4.59375 26.5 4.59375 24.796875 
C 4.59375 23 6.203125 23 7.703125 23 
L 34.203125 23 
L 34.203125 -3.03125 
C 34.203125 -4.40625 34.203125 -6.109375 35.90625 -6.109375 
C 37.703125 -6.109375 37.703125 -4.515625 37.703125 -3.03125 
z
" id="CMR17-43"/>
      <path d="M 65.90625 23 
C 67.59375 23 69.40625 23 69.40625 25 
C 69.40625 27 67.59375 27 65.90625 27 
L 11.796875 27 
C 10.09375 27 8.296875 27 8.296875 25 
C 8.296875 23 10.09375 23 11.796875 23 
z
" id="CMSY10-0"/>
     </defs>
     <g transform="translate(360.004972 70.804378)scale(0.1 -0.1)">
      <use transform="scale(0.996264)" xlink:href="#CMMI12-11"/>
      <use transform="translate(62.681023 0)scale(0.996264)" xlink:href="#CMMI12-116"/>
      <use transform="translate(120.04656 0)scale(0.996264)" xlink:href="#CMR17-43"/>
      <use transform="translate(213.900555 0)scale(0.996264)" xlink:href="#CMR17-49"/>
      <use transform="translate(281.73024 0)scale(0.996264)" xlink:href="#CMSY10-0"/>
      <use transform="translate(381.356914 0)scale(0.996264)" xlink:href="#CMMI12-11"/>
     </g>
    </g>
   </g>
   <g id="line2d_146">
    <path clip-path="url(#p5c231442b0)" d="M 75.896387 289.069136 
L 76.206872 284.916222 
L 76.827842 281.876078 
L 77.759296 278.896616 
L 79.001236 275.936469 
L 80.55366 272.98497 
L 82.416569 270.038094 
L 84.589963 267.093981 
L 87.073841 264.151653 
L 89.868205 261.210543 
L 92.973053 258.270302 
L 96.388386 255.330704 
L 100.424689 252.15723 
L 104.771477 249.019885 
L 109.739234 245.711442 
L 115.327961 242.268173 
L 121.537658 238.717731 
L 128.368324 235.081256 
L 135.81996 231.375013 
L 143.892566 227.611623 
L 152.896626 223.668983 
L 162.521656 219.701798 
L 173.078141 215.596589 
L 184.56608 211.375231 
L 196.985473 207.055658 
L 210.336321 202.652596 
L 224.618623 198.178178 
L 240.142865 193.552117 
L 256.598561 188.881433 
L 274.296197 184.089913 
L 293.235772 179.193362 
L 313.417286 174.205213 
L 335.151225 169.065014 
L 358.127103 163.860332 
L 382.655405 158.532806 
L 386.070738 157.808148 
L 386.070738 157.808148 
" style="fill:none;stroke:#1f77b4;stroke-linecap:square;stroke-width:1.5;"/>
   </g>
  </g>
 </g>
 <defs>
  <clipPath id="p5c231442b0">
   <rect height="262.2312" width="357.12" x="57.6" y="40.8672"/>
  </clipPath>
 </defs>
</svg>
